<svg width="14" height="12" viewBox="0 0 14 12" fill="none" xmlns="http://www.w3.org/2000/svg">
<path d="M12.9828 4.04941C12.9321 3.87689 12.8511 3.72354 12.7448 3.57978C12.6486 3.4456 12.5372 3.321 12.4005 3.22516C12.2638 3.12453 12.1068 3.05264 11.9346 2.99514C11.7574 2.93284 11.5599 2.8945 11.3523 2.88971C11.327 2.88971 11.3017 2.88013 11.2764 2.88013H2.10151C1.97492 2.88013 1.85847 2.8945 1.74201 2.91367C0.957185 3.04785 0.415402 3.62291 0.349578 4.37048C0.334387 4.52862 0.334387 4.69156 0.364767 4.86407L0.395146 5.03659L0.501489 5.6404L0.607816 6.24421L0.714143 6.84802L0.82047 7.45183L0.926812 8.05564L1.03314 8.65945L1.12428 9.15783C1.12934 9.19138 1.14454 9.22013 1.1496 9.25368C1.19011 9.43099 1.25592 9.6035 1.342 9.76644C1.41795 9.91499 1.51416 10.0588 1.62049 10.1881C1.72683 10.3127 1.83822 10.4325 1.96987 10.5428C2.09646 10.6482 2.23822 10.744 2.38506 10.8255C2.54202 10.9118 2.70405 10.9788 2.87621 11.0268C3.06355 11.0843 3.26104 11.1226 3.45851 11.1322C3.49902 11.1322 3.53952 11.1418 3.58003 11.1418H9.77257C9.98017 11.1418 10.1827 11.1034 10.3802 11.0507C11.2966 10.8063 12.0713 10.054 12.2334 9.15304L12.2435 9.10512L12.4005 8.22337L12.5574 7.34161L12.7144 6.45986L12.8714 5.5781L12.9979 4.87366C13.0081 4.82094 13.003 4.77302 13.0081 4.72031C13.0334 4.48549 13.0131 4.26506 12.9574 4.05899L12.9828 4.04941ZM10.0865 4.60051V6.38318C10.0865 6.50778 9.98015 6.60362 9.85357 6.60841C9.85357 6.60841 9.84851 6.60841 9.84345 6.60841H9.53964C9.43331 6.60841 9.35736 6.53653 9.32698 6.44548C9.31686 6.42152 9.29661 6.40714 9.29661 6.37839V4.59571C9.29661 4.46633 9.40799 4.36569 9.53964 4.36569H9.84345C9.86876 4.36569 9.88902 4.38486 9.91434 4.39444C10.0105 4.4232 10.0865 4.49508 10.0865 4.59571V4.60051ZM8.09151 4.60051V6.38318C8.09151 6.51257 7.98011 6.61321 7.84847 6.61321H7.54466C7.41807 6.61321 7.32694 6.52216 7.31175 6.40714C7.31175 6.39756 7.30163 6.39277 7.30163 6.38318V4.60051C7.30163 4.47112 7.41301 4.37048 7.54466 4.37048H7.84847C7.84847 4.37048 7.86365 4.38007 7.87884 4.38007C8.00037 4.39444 8.09658 4.4807 8.09658 4.60051H8.09151ZM5.85349 4.37048C5.9902 4.37048 6.09654 4.47591 6.09654 4.60051V6.38318C6.09654 6.51257 5.98513 6.61321 5.85349 6.61321H5.54968C5.41297 6.61321 5.30665 6.50778 5.30665 6.38318V4.60051C5.30665 4.47112 5.41803 4.37048 5.54968 4.37048H5.85349ZM3.55472 6.61321C3.418 6.61321 3.31167 6.50778 3.31167 6.38318V4.60051C3.31167 4.47112 3.42307 4.37048 3.55472 4.37048H3.85851C3.99522 4.37048 4.10156 4.47591 4.10156 4.60051V6.38318C4.10156 6.51257 3.99016 6.61321 3.85851 6.61321H3.55472ZM3.31167 9.41661V7.63393C3.31167 7.50455 3.42307 7.40391 3.55472 7.40391H3.85851C3.98509 7.40391 4.08636 7.49975 4.09649 7.61956C4.09649 7.62435 4.10156 7.62914 4.10156 7.63393V9.41661C4.10156 9.546 3.99016 9.64663 3.85851 9.64663H3.55472C3.55472 9.64663 3.54458 9.64184 3.53446 9.63705C3.41294 9.62746 3.31167 9.53641 3.31167 9.41661ZM5.54968 9.64663C5.41297 9.64663 5.30665 9.54121 5.30665 9.41661V7.63393C5.30665 7.50455 5.41803 7.40391 5.54968 7.40391H5.85349C5.9902 7.40391 6.09654 7.50934 6.09654 7.63393V9.41661C6.09654 9.546 5.98513 9.64663 5.85349 9.64663H5.54968ZM7.54466 9.64663C7.40795 9.64663 7.30163 9.54121 7.30163 9.41661V7.63393C7.30163 7.50455 7.41301 7.40391 7.54466 7.40391H7.84847C7.98518 7.40391 8.09151 7.50934 8.09151 7.63393V9.41661C8.09151 9.546 7.98011 9.64663 7.84847 9.64663H7.54466ZM10.0915 8.5109V9.41661C10.0915 9.546 9.98016 9.64663 9.84851 9.64663H9.54471C9.408 9.64663 9.30166 9.54121 9.30166 9.41661V7.63393C9.30166 7.50455 9.41306 7.40391 9.54471 7.40391H9.84851C9.98523 7.40391 10.0915 7.50934 10.0915 7.63393V8.5109Z" fill="#1C1B14"/>
<path d="M9.49401 2.47275C9.2459 2.47275 9.04843 2.28585 9.04843 2.05104C9.04843 1.38493 8.47627 0.843417 7.77246 0.843417H5.63063C4.92682 0.843417 4.35466 1.38493 4.35466 2.05104C4.35466 2.28585 4.15719 2.47275 3.90908 2.47275C3.66098 2.47275 3.4635 2.28585 3.4635 2.05104C3.4635 0.920091 4.43567 0 5.63063 0H7.77246C8.96742 0 9.93959 0.920091 9.93959 2.05104C9.93959 2.28585 9.74211 2.47275 9.49401 2.47275Z" fill="#1C1B14"/>
</svg>
