<svg width="30" height="27" viewBox="0 0 30 27" fill="none" xmlns="http://www.w3.org/2000/svg">
<path d="M7.23702 20.2535L7.82046 19.4778L7.23702 20.2535ZM3.68535 11.7979L2.74145 12.0241L3.68535 11.7979ZM7.00419 20.0699L7.62256 19.3217L7.00419 20.0699ZM28.272 12.433L27.3281 12.2068L28.272 12.433ZM25.5161 19.6998L24.8361 19.0071L24.8361 19.0071L25.5161 19.6998ZM24.4169 20.5667L23.9018 19.744L23.9018 19.744L24.4169 20.5667ZM28.1722 7.27372L28.8384 6.5678L28.1722 7.27372ZM28.6403 7.86733L27.7986 8.35064L28.6403 7.86733ZM2.01123 0.88324C1.88122 0.36318 1.35423 0.0469864 0.834167 0.177001C0.314108 0.307016 -0.00208587 0.834006 0.127929 1.35407L2.01123 0.88324ZM20.4822 17.6194C21.0183 17.6194 21.4528 17.1848 21.4528 16.6488C21.4528 16.1127 21.0183 15.6781 20.4822 15.6781V17.6194ZM12.7172 15.6781C12.1811 15.6781 11.7465 16.1127 11.7465 16.6488C11.7465 17.1848 12.1811 17.6194 12.7172 17.6194V15.6781ZM2.43187 7.53844H23.6463V5.59718H2.43187V7.53844ZM16.7079 20.5824H16.0548V22.5236H16.7079V20.5824ZM4.62925 11.5716L3.37577 6.34159L1.48797 6.79404L2.74145 12.0241L4.62925 11.5716ZM16.0548 20.5824C13.6685 20.5824 11.962 20.5808 10.6333 20.4264C9.32921 20.2749 8.49543 19.9855 7.82046 19.4778L6.65358 21.0292C7.70634 21.821 8.91809 22.1814 10.4092 22.3547C11.8758 22.5252 13.7144 22.5236 16.0548 22.5236V20.5824ZM2.74145 12.0241C3.28693 14.3 3.71395 16.0883 4.22152 17.4748C4.73759 18.8845 5.37045 19.9788 6.38583 20.8181L7.62256 19.3217C6.97156 18.7837 6.49582 18.0403 6.04447 16.8074C5.58463 15.5513 5.18542 13.8922 4.62925 11.5716L2.74145 12.0241ZM7.82046 19.4778C7.75331 19.4273 7.68733 19.3753 7.62256 19.3217L6.38583 20.8181C6.47345 20.8905 6.56273 20.9609 6.65358 21.0292L7.82046 19.4778ZM27.3281 12.2068C26.8469 14.2142 26.5018 15.6494 26.1177 16.7493C25.74 17.8306 25.3527 18.5 24.8361 19.0071L26.1961 20.3924C27.0058 19.5975 27.5199 18.6218 27.9504 17.3894C28.3743 16.1755 28.7439 14.6283 29.2159 12.6593L27.3281 12.2068ZM16.7079 22.5236C18.7328 22.5236 20.3234 22.5248 21.6027 22.3954C22.9015 22.2641 23.9702 21.9915 24.932 21.3894L23.9018 19.744C23.2882 20.1282 22.5469 20.3488 21.4074 20.464C20.2483 20.5812 18.7722 20.5824 16.7079 20.5824V22.5236ZM24.8361 19.0071C24.5522 19.2858 24.2389 19.5329 23.9018 19.744L24.932 21.3894C25.3881 21.1037 25.812 20.7695 26.1961 20.3924L24.8361 19.0071ZM23.6463 7.53844C24.9308 7.53844 25.8051 7.54015 26.4557 7.61954C27.0902 7.69696 27.3504 7.83276 27.506 7.97964L28.8384 6.5678C28.246 6.00877 27.5025 5.79162 26.6908 5.69257C25.8951 5.59547 24.8804 5.59718 23.6463 5.59718V7.53844ZM29.2159 12.6593C29.5035 11.4592 29.7416 10.4729 29.8327 9.67644C29.9255 8.86397 29.8876 8.09036 29.4821 7.38401L27.7986 8.35064C27.9051 8.53622 27.9766 8.82087 27.904 9.45598C27.8295 10.1071 27.6274 10.9577 27.3281 12.2068L29.2159 12.6593ZM27.506 7.97964C27.6212 8.08832 27.7197 8.21332 27.7986 8.35064L29.4821 7.38401C29.3086 7.0819 29.0917 6.8069 28.8384 6.5678L27.506 7.97964ZM3.37352 6.3324L2.01123 0.88324L0.127929 1.35407L1.49022 6.80323L3.37352 6.3324ZM20.4822 15.6781H12.7172V17.6194H20.4822V15.6781Z" fill="#7A7F88"/>
<path d="M13.33 25.6396C13.33 26.392 12.7201 27.0019 11.9678 27.0019C11.2154 27.0019 10.6055 26.392 10.6055 25.6396C10.6055 24.8873 11.2154 24.2773 11.9678 24.2773C12.7201 24.2773 13.33 24.8873 13.33 25.6396Z" fill="#7A7F88"/>
<path d="M21.5038 25.6396C21.5038 26.392 20.8939 27.0019 20.1415 27.0019C19.3891 27.0019 18.7792 26.392 18.7792 25.6396C18.7792 24.8873 19.3891 24.2773 20.1415 24.2773C20.8939 24.2773 21.5038 24.8873 21.5038 25.6396Z" fill="#7A7F88"/>
</svg>
